<?xml version="1.0" encoding="UTF-8"?>
<svg version="1.1" xmlns="http://www.w3.org/2000/svg" width="1476" height="391">
<path d="M0 0 C1.59964467 0.7934289 3.19855914 1.58833009 4.79716492 2.3838501 C5.68763865 2.82635227 6.57811239 3.26885445 7.49557018 3.72476578 C10.44394529 5.22605314 13.26691184 6.87170081 16.08203125 8.609375 C17.16355469 9.27259766 18.24507813 9.93582031 19.359375 10.61914062 C20.20145508 11.13891479 20.20145508 11.13891479 21.06054688 11.66918945 C24.13448032 13.5655528 27.21736923 15.44722449 30.30078125 17.328125 C30.93730621 17.71653564 31.57383118 18.10494629 32.22964478 18.50512695 C38.9372826 22.58780672 45.7146798 26.54827801 52.5 30.5 C62.64732007 36.41354811 72.71656342 42.44112882 82.73974609 48.5625 C91.60396733 53.97303167 100.52822302 59.26992922 109.5 64.5 C118.99369173 70.03527596 128.43143471 75.65086714 137.8125 81.375 C148.00042657 87.5914387 158.23209936 93.72902022 168.5 99.8125 C169.17983948 100.21536224 169.85967896 100.61822449 170.56011963 101.03329468 C173.21552211 102.60680614 175.87094639 104.18028077 178.52648926 105.7535553 C215.90675145 127.90675145 215.90675145 127.90675145 218 130 C218.09439978 132.26991887 218.11742226 134.54281967 218.11352539 136.81469727 C218.11367142 137.52685394 218.11381744 138.23901062 218.1139679 138.9727478 C218.1132687 141.33733112 218.10547606 143.70183661 218.09765625 146.06640625 C218.09579209 147.70165463 218.09436818 149.33690357 218.09336853 150.97215271 C218.08954318 155.28434785 218.07971275 159.59650952 218.06866455 163.90869141 C218.0584508 168.30565946 218.05387099 172.70263289 218.04882812 177.09960938 C218.03809049 185.73308831 218.02101387 194.36654 218 203 C214.1068771 202.12603364 210.9421978 200.46786101 207.5 198.5 C206.81550781 198.11183105 206.13101563 197.72366211 205.42578125 197.32373047 C197.32268317 192.68118525 189.36711385 187.79070614 181.39648438 182.92578125 C172.30541861 177.38010461 163.16532158 171.92194584 154 166.5 C143.89748894 160.52251293 133.83247436 154.48981549 123.8125 148.375 C113.61715999 142.15320978 103.34850501 136.06799484 93.03179932 130.04977417 C82.94039598 124.16213324 72.93056386 118.15508844 63 112 C62.855625 112.87011719 62.71125 113.74023438 62.5625 114.63671875 C62.21227107 116.73079587 61.82311534 118.81919708 61.375 120.89453125 C60.92822752 124.37097963 61.00465142 126.61939466 62 130 C64.23899707 131.77594181 66.12593943 133.0097505 68.61328125 134.32421875 C69.99313638 135.10091567 71.3728526 135.87785943 72.75244141 136.6550293 C73.81473969 137.23865738 73.81473969 137.23865738 74.89849854 137.83407593 C78.13559444 139.63003377 81.30439865 141.53642281 84.48046875 143.4375 C85.74372638 144.18624621 87.00740429 144.93428376 88.27148438 145.68164062 C99.88716711 152.55712687 111.47424632 159.47473131 123 166.5 C133.02321865 172.60888498 143.08886899 178.64159825 153.1875 184.625 C154.20056717 185.22530533 154.20056717 185.22530533 155.23410034 185.83773804 C155.90571198 186.23570587 156.57732361 186.63367371 157.26928711 187.04370117 C158.6092249 187.8377065 159.94915014 188.631733 161.2890625 189.42578125 C162.27148674 190.00796669 162.27148674 190.00796669 163.27375793 190.60191345 C177.90062 199.27375791 192.46533573 208.04961434 207 216.875 C207.99265869 217.47675049 208.98531738 218.07850098 210.00805664 218.69848633 C210.91289795 219.24915771 211.81773926 219.7998291 212.75 220.3671875 C213.94882812 221.09591064 213.94882812 221.09591064 215.171875 221.83935547 C217 223 217 223 218 224 C218.096937 226.15159726 218.12186783 228.30644111 218.12025452 230.46022034 C218.12153615 231.48443184 218.12153615 231.48443184 218.12284368 232.52933449 C218.12450043 234.83411691 218.11897397 237.13882772 218.11352539 239.44360352 C218.11324353 241.08905028 218.11340122 242.73449716 218.1139679 244.37994385 C218.11425593 248.86115759 218.10835821 253.34234481 218.10139394 257.82355237 C218.09516142 262.50142105 218.09455668 267.17929028 218.09336853 271.85716248 C218.09025491 280.72175168 218.08204111 289.58632862 218.07201904 298.45091242 C218.06085885 308.54022202 218.05534769 318.6295322 218.05032361 328.71884644 C218.03985852 349.47923782 218.02225849 370.23961814 218 391 C214.29118781 390.16591244 211.53833155 388.71961295 208.25 386.78125 C207.68821548 386.45163269 207.12643097 386.12201538 206.54762268 385.78240967 C204.69532853 384.69341824 202.84760566 383.59692433 201 382.5 C199.69927225 381.73251875 198.39840749 380.96526967 197.09741211 380.19824219 C187.02241709 374.24669803 177.01546938 368.18433314 167.02441406 362.09326172 C157.43485178 356.24848388 147.7789448 350.52324849 138.10058594 344.82714844 C131.85253164 341.14522415 125.61262031 337.44956809 119.375 333.75 C118.69119263 333.34444885 118.00738525 332.93889771 117.30285645 332.52105713 C107.26122434 326.56228967 97.26242446 320.53726403 87.29266357 314.45910645 C77.90268201 308.73619254 68.46315211 303.10099704 59 297.5 C30.57337112 280.67437099 30.57337112 280.67437099 18.52185059 273.07356262 C16.12219574 271.60400549 13.71070753 270.38670688 11.13891602 269.2474823 C7.03564026 267.32435214 3.12914176 265.34330628 0 262 C-2.05846795 256.27043239 -1.76691643 250.94560369 -1.46484375 244.93359375 C-1.43682392 243.28745747 -1.41549214 241.64119504 -1.40052795 239.99488831 C-1.34356593 235.68581454 -1.19658209 231.38447188 -1.02996826 227.07843018 C-0.87579203 222.675096 -0.80786493 218.27049633 -0.73242188 213.86523438 C-0.5721142 205.23996219 -0.31656825 196.62094552 0 188 C3.84138787 189.49488809 7.28931211 191.22644999 10.84765625 193.31640625 C11.40757263 193.6443367 11.96748901 193.97226715 12.54437256 194.31013489 C14.38598605 195.39049954 16.22434289 196.47626649 18.0625 197.5625 C19.36609271 198.32965246 20.66972291 199.09674122 21.97338867 199.86376953 C31.78382833 205.64639606 41.52466159 211.5392337 51.24633789 217.46972656 C60.29165636 222.98400866 69.38582292 228.41288238 78.5 233.8125 C79.18615387 234.21901794 79.87230774 234.62553589 80.57925415 235.04437256 C81.94161393 235.85146223 83.30397455 236.65855047 84.66633606 237.46563721 C85.32300766 237.85467224 85.97967926 238.24370728 86.65625 238.64453125 C87.30184372 239.02695984 87.94743744 239.40938843 88.6125946 239.80340576 C93.75314757 242.85002188 98.88031727 245.91843546 104 249 C114.22718081 255.15432113 124.49497217 261.24013299 134.76171875 267.328125 C141.85247535 271.53337207 148.93747664 275.74741033 156 280 C157.41755353 273.41126905 158.10000647 267.20351446 155 261 C148.33298917 254.42947066 139.25018127 250.36511627 130.99560547 246.1015625 C125.24012069 243.11055887 119.69343724 239.77112546 114.12399292 236.45080566 C111.09574523 234.65239619 108.05056953 232.88308052 105.0078125 231.109375 C97.52044311 226.73417218 90.08549674 222.27357609 82.65673828 217.79980469 C74.86889372 213.11259636 67.05580097 208.46948873 59.23492432 203.83773804 C27.84492051 185.24469345 27.84492051 185.24469345 16.359622 177.99533844 C13.05669039 175.95155033 13.05669039 175.95155033 9.59587574 174.44988251 C0.71976838 170.08760212 0.71976838 170.08760212 -1.17464638 164.59307861 C-1.60560441 160.23202555 -1.61163117 156.04213208 -1.47583008 151.66992188 C-1.4721593 150.01359345 -1.47422896 148.3572439 -1.48158264 146.70092773 C-1.48530267 142.22033562 -1.40906696 137.74429713 -1.31812119 133.26476097 C-1.2366702 128.57782679 -1.22920386 123.89077978 -1.21379089 119.20324707 C-1.17343669 110.3343516 -1.06683496 101.4675475 -0.93624753 92.5995717 C-0.79077351 82.50072109 -0.71942343 72.4017688 -0.65420687 62.3021307 C-0.51844171 41.53358793 -0.28988958 20.76692586 0 0 Z " fill="#E5BB84" transform="translate(239,0)"/>
<path d="M0 0 C1.13705323 43.75694087 1.6696523 87.51391349 1.91112614 131.28453922 C1.98305859 144.01325087 2.0863794 156.74027695 2.26196289 169.46801758 C2.41683939 180.69830363 2.5155534 191.92741661 2.54608625 203.15875524 C2.56400475 209.0686651 2.6092008 214.97537468 2.72224617 220.88429451 C2.82705584 226.41081471 2.85633771 231.93263147 2.82801628 237.46002388 C2.83081356 239.47985393 2.86087578 241.49986579 2.92074585 243.51881027 C3.33769525 258.32853666 3.33769525 258.32853666 -0.546592 262.76740909 C-4.33426305 265.90487537 -8.49891716 268.06498969 -12.97149956 270.06177318 C-16.10329388 271.51029809 -18.97727072 273.30121385 -21.921875 275.09765625 C-24.19691851 276.42098833 -26.47298581 277.74256168 -28.75 279.0625 C-38.49703381 284.73783378 -48.18522751 290.49888947 -57.8125 296.375 C-67.8966437 302.5283312 -78.0235103 308.60443411 -88.1875 314.625 C-88.86559723 315.02668396 -89.54369446 315.42836792 -90.24234009 315.84222412 C-90.91751678 316.2421759 -91.59269348 316.64212769 -92.28833008 317.05419922 C-93.63364993 317.85119709 -94.97894639 318.64823446 -96.32421875 319.4453125 C-96.98104141 319.83447845 -97.63786407 320.22364441 -98.31459045 320.62460327 C-104.39020031 324.22679005 -110.44728201 327.85948991 -116.5 331.5 C-125.23318999 336.75272552 -133.99001556 341.96409407 -142.75820923 347.15805054 C-153.64659611 353.60826525 -164.50495729 360.102672 -175.3125 366.6875 C-184.29023127 372.15245802 -193.27861266 377.5982943 -202.3074646 382.97842407 C-203.51071339 383.69610641 -204.71305989 384.41530384 -205.91445923 385.13607788 C-207.56801329 386.12755889 -209.22532016 387.11277312 -210.8828125 388.09765625 C-211.82527832 388.65976807 -212.76774414 389.22187988 -213.73876953 389.80102539 C-216 391 -216 391 -218 391 C-218.84867291 360.5378272 -219.35187513 330.0686872 -219.6730957 299.59667969 C-219.68183621 298.77063736 -219.69057673 297.94459503 -219.6995821 297.09352112 C-219.73426857 293.79995734 -219.76884874 290.5063933 -219.8020649 287.21281433 C-219.89616454 277.96845108 -220.03511245 268.72947849 -220.28715515 259.48789978 C-220.40193536 255.15387321 -220.48481121 250.81963298 -220.5607605 246.48477173 C-220.60310061 244.55870882 -220.6612626 242.63291927 -220.73635864 240.70785522 C-221.27290983 226.80509031 -221.27290983 226.80509031 -218.49047852 222.859375 C-216.09300659 221.18292391 -213.69197992 220.1477208 -211 219 C-209.23896901 217.96413641 -207.47892298 216.92612108 -205.7383728 215.85620117 C-203.78567434 214.6559966 -201.81743345 213.48633384 -199.84228516 212.32348633 C-199.16288879 211.92304108 -198.48349243 211.52259583 -197.7835083 211.11001587 C-197.09182556 210.70246063 -196.40014282 210.2949054 -195.6875 209.875 C-192.83403395 208.1898189 -189.98141261 206.50321119 -187.12890625 204.81640625 C-186.42965027 204.4032164 -185.73039429 203.99002655 -185.00994873 203.5643158 C-180.83540878 201.09504553 -176.67479708 198.60447264 -172.52734375 196.08984375 C-171.59897705 195.5273291 -170.67061035 194.96481445 -169.71411133 194.38525391 C-168.02818903 193.36114156 -166.34431879 192.3336409 -164.6628418 191.30224609 C-159.21922995 188 -159.21922995 188 -157 188 C-156.82792828 197.14573664 -156.66148145 206.29157057 -156.5 215.4375 C-156.48812275 216.11000919 -156.4762455 216.78251839 -156.46400833 217.47540665 C-156.09762479 238.31806869 -155.8419455 259.15382749 -156 280 C-133.72210215 266.79678587 -133.72210215 266.79678587 -111.5 253.5 C-100.2069584 246.70916144 -88.87898119 239.97791761 -77.54492188 233.25585938 C-76.54909088 232.66523712 -76.54909088 232.66523712 -75.53314209 232.06268311 C-74.2912538 231.32623417 -73.0492762 230.5899358 -71.80718994 229.8538208 C-70.20423112 228.9034948 -68.60208934 227.95179106 -67 227 C-66.12292389 226.61270721 -65.24584778 226.22541443 -64.3421936 225.8263855 C-61.67408316 224.1584097 -61.67408316 224.1584097 -61.39199829 220.8621521 C-61.40008514 219.56492218 -61.408172 218.26769226 -61.41650391 216.93115234 C-61.41416748 216.21318985 -61.41183105 215.49522736 -61.40942383 214.75550842 C-61.40780172 212.36492544 -61.44200934 209.9762505 -61.4765625 207.5859375 C-61.48336831 205.8980885 -61.48808061 204.21022989 -61.49081421 202.52236938 C-61.50427137 198.04660178 -61.54850249 193.57161942 -61.59838867 189.09613037 C-61.63308513 185.5482587 -61.64672862 182.00047476 -61.6589241 178.45246506 C-61.73553688 156.28914152 -62.19864926 134.14867346 -63 112 C-82.61231692 123.44702651 -82.61231692 123.44702651 -102.125 135.0625 C-109.66758982 139.59992693 -117.21064337 144.13645415 -124.77142334 148.64352417 C-126.00077512 149.3773746 -127.22918077 150.11281248 -128.456604 150.84988403 C-130.16914007 151.87797334 -131.88527464 152.90006123 -133.6015625 153.921875 C-134.59494629 154.51581055 -135.58833008 155.10974609 -136.61181641 155.72167969 C-139 157 -139 157 -141 157 C-141.31991652 151.28149223 -141.53391639 145.5697007 -141.66796875 139.84375 C-141.78096797 135.01791706 -142.04603205 130.23647154 -142.49853516 125.4296875 C-145.95641452 88.60869584 -145.95641452 88.60869584 -139.76318359 80.52587891 C-134.05936852 75.24614651 -127.35792966 72.30494909 -120.1884613 69.52781677 C-113.03766924 66.75712852 -106.73164882 62.88701963 -100.23620605 58.84991455 C-96.90438339 56.79514382 -93.52874135 54.81516619 -90.15625 52.828125 C-88.79801198 52.02436748 -87.43993923 51.22033061 -86.08203125 50.41601562 C-84.04087908 49.20788213 -81.99968759 47.9998151 -79.95849609 46.79174805 C-75.22131958 43.98787006 -70.48496157 41.18261699 -65.75 38.375 C-65.08790527 37.98240997 -64.42581055 37.58981995 -63.74365234 37.18533325 C-54.21304761 31.53112319 -44.71744744 25.82179586 -35.25 20.0625 C-34.67497742 19.71283173 -34.09995483 19.36316345 -33.50750732 19.00289917 C-28.63158784 16.03767246 -23.75669934 13.07075531 -18.88378906 10.10058594 C-16.05009124 8.37528537 -13.21304696 6.65563391 -10.375 4.9375 C-9.13024902 4.17675171 -9.13024902 4.17675171 -7.86035156 3.40063477 C-6.7345166 2.72085571 -6.7345166 2.72085571 -5.5859375 2.02734375 C-4.61213135 1.43554321 -4.61213135 1.43554321 -3.61865234 0.83178711 C-2 0 -2 0 0 0 Z " fill="#E5BB84" transform="translate(220,0)"/>
<path d="M0 0 C8.58 0 17.16 0 26 0 C27.66010372 3.42153844 29.32019352 6.84308229 30.97973633 10.26489258 C32.41904709 13.23248424 33.85909945 16.1997146 35.29956055 19.16674805 C38.9093309 26.60513977 42.50776822 34.04854319 46.07421875 41.5078125 C47.01891901 43.47971314 47.96387764 45.45148979 48.90887451 47.42324829 C49.50832115 48.67653916 50.10619762 49.93058232 50.70245361 51.18539429 C51.53343959 52.93403583 52.37011063 54.67997232 53.20703125 56.42578125 C53.6760083 57.40973877 54.14498535 58.39369629 54.62817383 59.4074707 C55.90343602 61.81750972 57.29661899 63.87744105 59 66 C59.30067383 65.37359619 59.60134766 64.74719238 59.91113281 64.10180664 C60.33749023 63.21356201 60.76384766 62.32531738 61.203125 61.41015625 C61.68297852 60.41040771 62.16283203 59.41065918 62.65722656 58.38061523 C63.73192755 56.14176467 64.80680134 53.90299704 65.88183594 51.66430664 C68.65436783 45.89007804 71.42441877 40.11469507 74.1875 34.3359375 C79.68936777 22.83661652 85.25481567 11.37988435 91 0 C99.25 0 107.5 0 116 0 C116 42.57 116 85.14 116 129 C107.42 129 98.84 129 90 129 C89.67 106.23 89.34 83.46 89 60 C82.13173255 73.77613628 82.13173255 73.77613628 75.26782227 87.55444336 C74.40917555 89.27465601 73.55038051 90.99479463 72.69140625 92.71484375 C72.24309448 93.61658325 71.79478271 94.51832275 71.33288574 95.4473877 C70.90664917 96.29998169 70.4804126 97.15257568 70.04125977 98.03100586 C69.67041763 98.77491074 69.2995755 99.51881561 68.91749573 100.28526306 C68 102 68 102 67 103 C61.06 103 55.12 103 49 103 C41.74 88.48 34.48 73.96 27 59 C26.67 82.1 26.34 105.2 26 129 C17.42 129 8.84 129 0 129 C0 86.43 0 43.86 0 0 Z " fill="#371C13" transform="translate(1360,128)"/>
<path d="M0 0 C68.57283266 0 68.57283266 0 81.25 11.6875 C89.26030551 20.16055224 92.51590407 30.66184466 92.24609375 42.13671875 C91.40741404 51.89469064 88.08169509 60.38589143 80.75 67.04296875 C77.30672213 69.78966245 73.95476366 72.06712349 70 74 C77.19478867 88.49093436 84.40671902 102.96087869 92.01171875 117.2421875 C97 126.6505547 97 126.6505547 97 129 C87.1 129 77.2 129 67 129 C60.48339205 116.03685516 53.97775734 103.07454689 47.6875 90 C47.21401123 89.02216553 46.74052246 88.04433105 46.25268555 87.03686523 C45.8225415 86.13782471 45.39239746 85.23878418 44.94921875 84.3125 C44.57112061 83.52488281 44.19302246 82.73726563 43.8034668 81.92578125 C43 80 43 80 43 78 C37.39 78 31.78 78 26 78 C26 94.83 26 111.66 26 129 C17.42 129 8.84 129 0 129 C0 86.43 0 43.86 0 0 Z M26 24 C26 34.56 26 45.12 26 56 C30.29 56.0825 34.58 56.165 39 56.25 C41.00513672 56.30462402 41.00513672 56.30462402 43.05078125 56.36035156 C50.20767174 56.42677779 54.96420245 55.94952664 61 52 C65.18259722 47.60291062 66.3224847 44.14516469 66.2109375 38.0546875 C65.72144252 33.28664383 63.46819043 30.20887323 59.9375 27.1875 C55.67892585 24.01622138 53.74724828 23.87935979 48.4609375 23.90234375 C46.70209229 23.90609009 46.70209229 23.90609009 44.90771484 23.90991211 C43.41191895 23.91901611 41.91612305 23.92812012 40.375 23.9375 C33.259375 23.9684375 33.259375 23.9684375 26 24 Z " fill="#371C13" transform="translate(737,128)"/>
<path d="M0 0 C28.05 0 56.1 0 85 0 C85 7.92 85 15.84 85 24 C65.53 24 46.06 24 26 24 C26 33.24 26 42.48 26 52 C42.5 52 59 52 76 52 C76 59.92 76 67.84 76 76 C59.5 76 43 76 26 76 C26 85.57 26 95.14 26 105 C45.47 105 64.94 105 85 105 C85 112.92 85 120.84 85 129 C56.95 129 28.9 129 0 129 C0 86.43 0 43.86 0 0 Z " fill="#371C13" transform="translate(1259,128)"/>
<path d="M0 0 C28.05 0 56.1 0 85 0 C85 7.92 85 15.84 85 24 C65.53 24 46.06 24 26 24 C26 33.24 26 42.48 26 52 C42.5 52 59 52 76 52 C76 59.92 76 67.84 76 76 C59.5 76 43 76 26 76 C26 85.57 26 95.14 26 105 C45.47 105 64.94 105 85 105 C85 112.92 85 120.84 85 129 C56.95 129 28.9 129 0 129 C0 86.43 0 43.86 0 0 Z " fill="#371C13" transform="translate(636,128)"/>
<path d="M0 0 C8.58 0 17.16 0 26 0 C26.01458252 2.6186499 26.02916504 5.2372998 26.04418945 7.93530273 C26.09463343 16.60865799 26.16124577 25.28183556 26.23571491 33.95501614 C26.28035191 39.21112457 26.31962274 44.46715669 26.34643555 49.72338867 C26.37253505 54.80044781 26.41298442 59.87721221 26.46318626 64.95408821 C26.47981008 66.88641747 26.49135219 68.81879766 26.49761391 70.75118828 C26.50730394 73.4678185 26.53542112 76.18370222 26.56762695 78.90014648 C26.56547432 80.08590775 26.56547432 80.08590775 26.5632782 81.29562378 C26.67750333 88.15394852 27.95056557 94.4520545 32.3125 99.875 C38.58650769 104.83584329 43.73707265 105.59602785 51.578125 105.4140625 C56.39388262 104.83133384 59.52665896 103.35960443 63 100 C67.58623938 94.12020592 68.15563527 89.55877482 68.20532227 82.3059082 C68.21522186 81.4178952 68.22512146 80.5298822 68.23532104 79.61495972 C68.26693289 76.67692744 68.29169229 73.73887899 68.31640625 70.80078125 C68.33697604 68.76482216 68.35797252 66.72886733 68.37937927 64.69291687 C68.43459729 59.33193415 68.4840078 53.97091291 68.53222656 48.60986328 C68.58244352 43.14026456 68.63812858 37.67072185 68.69335938 32.20117188 C68.80093768 21.46749396 68.90187819 10.73376853 69 0 C77.58 0 86.16 0 95 0 C95.09068665 11.770779 95.16393769 23.54132261 95.20724869 35.31237316 C95.22804501 40.77926391 95.25621613 46.24590143 95.30175781 51.71264648 C95.34550074 56.99707307 95.3691968 62.28125742 95.37950897 67.56585121 C95.38684958 69.573101 95.40118284 71.58033886 95.42292023 73.58748436 C95.57949805 88.65665963 94.92076069 101.77320292 85 114 C84.49855469 114.62519531 83.99710938 115.25039062 83.48046875 115.89453125 C75.48342909 124.82553175 63.63304482 128.71152985 52 130 C38.62245108 130.43622442 25.39905323 127.90889887 14.9609375 118.9453125 C3.28076918 107.35821325 -0.12121057 94.77636196 -0.22705078 78.6730957 C-0.23425497 75.00715771 -0.21598155 71.34165223 -0.1953125 67.67578125 C-0.19157605 65.7185226 -0.18873207 63.76126206 -0.18673706 61.80400085 C-0.17915032 56.68635775 -0.15954515 51.56883062 -0.1373291 46.45123291 C-0.11676308 41.21555143 -0.10771247 35.97985097 -0.09765625 30.74414062 C-0.07629398 20.49603495 -0.04115299 10.24804533 0 0 Z " fill="#371C13" transform="translate(844,128)"/>
<path d="M0 0 C6.93 0 13.86 0 21 0 C21.97307824 2.66538822 22.94615397 5.33077736 23.91921997 7.99617004 C24.80685583 10.42748926 25.69453241 12.8587936 26.58224487 15.29008484 C28.84741615 21.49410649 31.11221823 27.69826202 33.37551594 33.90296745 C34.70063497 37.53565592 36.02603118 41.16824321 37.3515625 44.80078125 C37.75626801 45.9098691 37.75626801 45.9098691 38.1691494 47.04136276 C42.04398318 57.65867127 45.9327184 68.27080097 49.8308506 78.87957573 C51.43046454 83.2345495 53.02753143 87.59045801 54.62448406 91.94640827 C56.15946347 96.13239075 57.69866762 100.31678954 59.24079895 104.5001421 C60.42347137 107.71223654 61.59990565 110.92660828 62.77734375 114.140625 C63.42254471 115.8846888 63.42254471 115.8846888 64.08078003 117.66398621 C64.46783112 118.72394302 64.8548822 119.78389984 65.25366211 120.87597656 C65.59288193 121.79848206 65.93210175 122.72098755 66.28160095 123.67144775 C67 126 67 126 67 129 C58.09 129 49.18 129 40 129 C38.845 125.57625 37.69 122.1525 36.5 118.625 C36.13455078 117.54686035 35.76910156 116.4687207 35.39257812 115.35791016 C34.9662207 114.08633057 34.9662207 114.08633057 34.53125 112.7890625 C34.23798828 111.91975098 33.94472656 111.05043945 33.64257812 110.15478516 C33 108 33 108 33 106 C18.15 106 3.3 106 -12 106 C-12.66 108.97 -13.32 111.94 -14 115 C-15.54315818 119.71832304 -17.28108297 124.34083014 -19 129 C-27.91 129 -36.82 129 -46 129 C-45.31216882 124.8730129 -44.73607731 121.87917626 -43.32373047 118.10205078 C-42.97678131 117.16559219 -42.62983215 116.22913361 -42.27236938 115.26429749 C-41.89115936 114.25153244 -41.50994934 113.2387674 -41.1171875 112.1953125 C-40.71446625 111.11112534 -40.311745 110.02693817 -39.89682007 108.90989685 C-39.02034052 106.55094951 -38.14159649 104.1928426 -37.26086426 101.83547974 C-34.88301312 95.46907811 -32.52290713 89.09611791 -30.1640625 82.72265625 C-29.917202 82.05611715 -29.67034149 81.38957806 -29.41600037 80.70284081 C-22.45373697 61.89647873 -15.70396837 43.01357627 -8.9492054 24.13193035 C-7.98937621 21.44938681 -7.0287807 18.76711795 -6.06816483 16.08485603 C-5.40554582 14.23310391 -4.74454797 12.38077194 -4.08358765 10.52842712 C-3.69023224 9.4292244 -3.29687683 8.33002167 -2.89160156 7.19750977 C-2.54856995 6.23692154 -2.20553833 5.27633331 -1.85211182 4.28663635 C-1 2 -1 2 0 0 Z M10 42 C8.00222039 47.65860449 6.00849361 53.3186139 4.01855469 58.97998047 C3.34063916 60.9068075 2.66160618 62.83324176 1.98144531 64.75927734 C1.00553968 67.52339491 0.03362537 70.28888744 -0.9375 73.0546875 C-1.24373291 73.9193161 -1.54996582 74.7839447 -1.86547852 75.67477417 C-2.14576904 76.47545319 -2.42605957 77.2761322 -2.71484375 78.10107422 C-2.96355225 78.8072287 -3.21226074 79.51338318 -3.46850586 80.24093628 C-4.09641067 82.01281888 -4.09641067 82.01281888 -4 84 C5.9 84 15.8 84 26 84 C25.15695312 81.47085938 24.31390625 78.94171875 23.4453125 76.3359375 C19.63020833 64.890625 15.81510417 53.4453125 12 42 C11.34 42 10.68 42 10 42 Z " fill="#371C13" transform="translate(1089,128)"/>
<path d="M0 0 C-0.58110671 3.42754467 -1.68553624 5.04538661 -4.16015625 7.453125 C-4.78857422 8.071875 -5.41699219 8.690625 -6.06445312 9.328125 C-6.72380859 9.96234375 -7.38316406 10.5965625 -8.0625 11.25 C-8.72572266 11.8996875 -9.38894531 12.549375 -10.07226562 13.21875 C-11.70829317 14.8194676 -13.35090912 16.41276193 -15 18 C-15.95261719 17.50628906 -16.90523437 17.01257813 -17.88671875 16.50390625 C-19.15348171 15.85644963 -20.42041801 15.20933206 -21.6875 14.5625 C-22.31333984 14.23701172 -22.93917969 13.91152344 -23.58398438 13.57617188 C-31.67932183 9.4649272 -40.54861972 8.71175268 -49.484375 10.49609375 C-53.98198745 11.99247985 -56.74043431 13.84239913 -59 18 C-60.19887085 22.50409118 -60.35652459 25.93042623 -58.875 30.375 C-56.18082098 34.14685063 -53.4416337 35.65266697 -48.94482422 36.73608398 C-47.8260791 36.90438721 -46.70733398 37.07269043 -45.5546875 37.24609375 C-44.31203125 37.44396484 -43.069375 37.64183594 -41.7890625 37.84570312 C-39.20317857 38.23668258 -36.617242 38.62731409 -34.03125 39.01757812 C-20.29782936 41.20501471 -9.10753622 44.25362241 -0.55859375 55.9765625 C5.26334129 66.41737589 5.24861454 79.7029518 2.15625 90.94140625 C-1.59615555 100.86753309 -8.5442152 107.48141534 -18 112 C-35.51994758 118.75592318 -55.85082425 119.24804885 -73.43359375 112.19921875 C-80.12722426 109.07144924 -86.0879862 105.56694897 -91 100 C-88.97699054 95.56373447 -86.02132242 92.61748641 -82.625 89.1875 C-82.0475 88.57712891 -81.47 87.96675781 -80.875 87.33789062 C-80.02808594 86.4803418 -80.02808594 86.4803418 -79.1640625 85.60546875 C-78.65311035 85.08106201 -78.1421582 84.55665527 -77.61572266 84.01635742 C-76 83 -76 83 -73.94580078 83.25341797 C-70.62133652 84.52897778 -67.79311077 86.58097406 -64.828125 88.52734375 C-58.24939914 91.95300625 -51.70509036 92.34150076 -44.4375 92.3125 C-43.22030273 92.33666992 -43.22030273 92.33666992 -41.97851562 92.36132812 C-35.51016507 92.36654875 -30.64641886 91.29820586 -25.625 86.9375 C-22.08488678 82.71659578 -22.55746795 78.29368529 -23 73 C-24.3501344 69.26727547 -25.37558383 68.32570897 -28.890625 66.4921875 C-33.95761127 64.41240062 -39.29978718 63.84256457 -44.6875 63.0625 C-58.75364371 60.85010985 -71.13834006 58.72756353 -80.375 46.9375 C-86.29317259 38.48525892 -86.78509646 29.08288173 -86 19 C-84.1175335 9.07736034 -80.46794633 1.29384743 -72.453125 -5 C-50.29861253 -20.02000845 -20.23225823 -16.12319224 0 0 Z " fill="#371C13" transform="translate(1038,141)"/>
<path d="M0 0 C8.58 0 17.16 0 26 0 C26 34.65 26 69.3 26 105 C44.81 105 63.62 105 83 105 C83 112.92 83 120.84 83 129 C55.61 129 28.22 129 0 129 C0 86.43 0 43.86 0 0 Z " fill="#371C13" transform="translate(1164,128)"/>
<path d="M0 0 C8.58 0 17.16 0 26 0 C26.09067516 12.03154686 26.16393118 24.06286361 26.20724869 36.09467602 C26.2280478 41.68263214 26.25622421 47.27034064 26.30175781 52.8581543 C26.34549053 58.25928973 26.36919471 63.66018825 26.37950897 69.0614872 C26.38685138 71.11339352 26.40118825 73.16528814 26.42292023 75.21709251 C26.58050598 90.72410461 26.10968644 104.91976475 15 117 C4.70287412 126.37135904 -7.72758573 130.40196118 -21.55859375 130.14453125 C-33.53510818 129.4355216 -44.20796376 125.30358978 -53 117 C-47.72898586 110.58930713 -41.90871848 104.81409488 -36 99 C-35.42894531 99.433125 -34.85789062 99.86625 -34.26953125 100.3125 C-27.21380295 105.1584056 -21.46275156 106.12987337 -13 105 C-8.20715896 103.40238632 -5.74746995 101.21932884 -3 97 C-0.87090342 91.91239016 -0.69526811 87.38470105 -0.68115234 81.96533203 C-0.66608391 80.63265541 -0.66608391 80.63265541 -0.65071106 79.27305603 C-0.61994593 76.35131446 -0.60286245 73.42966425 -0.5859375 70.5078125 C-0.56722049 68.47613747 -0.54764668 66.44447016 -0.5272522 64.41281128 C-0.47598135 59.0765438 -0.43632855 53.74025114 -0.39910889 48.40386963 C-0.35903764 42.95407913 -0.30795952 37.50439295 -0.2578125 32.0546875 C-0.16111287 21.36985776 -0.07770668 10.68498477 0 0 Z " fill="#371C13" transform="translate(590,128)"/>
<path d="M0 0 C13 0 13 0 16.90332031 3.63330078 C18.00827585 5.29044045 19.0645473 6.9807575 20.078125 8.6953125 C20.65987488 9.59434296 21.24162476 10.49337341 21.84100342 11.41964722 C23.68827056 14.29595167 25.46882623 17.20741031 27.25 20.125 C28.45932135 22.0326299 29.67283034 23.93761187 30.890625 25.83984375 C33.15814309 29.39600746 35.40033661 32.96542072 37.61425781 36.55517578 C41.67230496 43.08117574 45.84437653 49.53569682 50 56 C50.33 37.52 50.66 19.04 51 0 C55.62 0 60.24 0 65 0 C65 28.38 65 56.76 65 86 C60.71 86 56.42 86 52 86 C49.05953577 82.87575675 47.18074616 80.53679798 45.12109375 76.92138672 C43.39956338 73.97094159 41.50325437 71.1399331 39.62573242 68.28710938 C37.96144016 65.75380612 36.31751695 63.20812627 34.67578125 60.66015625 C28.23167792 50.69818014 21.59427702 40.86274477 15 31 C14.67 49.15 14.34 67.3 14 86 C9.38 86 4.76 86 0 86 C0 57.62 0 29.24 0 0 Z " fill="#371C13" transform="translate(1166,304)"/>
<path d="M0 0 C1.99609375 1.125 1.99609375 1.125 3.8125 2.375 C4.44285156 2.7875 5.07320312 3.2 5.72265625 3.625 C12.11366809 8.4012976 15.57846977 15.59356937 16.8125 23.375 C16.92902471 26.12692533 17.00007384 28.85318957 17.015625 31.60546875 C17.02132507 32.39593094 17.02702515 33.18639313 17.03289795 34.00080872 C17.04231888 35.67085444 17.04887034 37.3409185 17.05273438 39.01098633 C17.06240225 41.53696093 17.09343696 44.06210793 17.125 46.58789062 C17.19813576 57.60678443 16.93813197 67.59680686 9.69140625 76.55078125 C2.04746973 83.97223313 -5.72393454 85.6545191 -15.96801758 85.69628906 C-24.03813517 85.56085677 -31.43729682 83.28493105 -37.1875 77.375 C-45.40559654 67.15902034 -45.51635101 56.81861161 -45.44824219 44.23681641 C-45.43752398 41.88027209 -45.44818098 39.52448989 -45.4609375 37.16796875 C-45.47323388 25.6111309 -45.22822141 15.43784701 -37.1875 6.375 C-27.03693392 -1.98849458 -12.56374855 -5.22582262 0 0 Z M-27 16.125 C-31.8849838 23.38269022 -31.52979564 31.2408269 -31.50317383 39.65332031 C-31.50001792 41.7381646 -31.52350726 43.82158086 -31.54882812 45.90625 C-31.77339606 57.63371125 -31.77339606 57.63371125 -26.87695312 67.9465332 C-23.20060075 71.29002987 -19.245543 73.32587481 -14.2421875 73.40625 C-9.29618239 73.03012794 -6.04582174 71.61949783 -2.1875 68.375 C3.66365387 60.7843139 3.02893692 53.63310665 3.05273438 44.41357422 C3.06240855 42.14643215 3.09343954 39.88020963 3.125 37.61328125 C3.38107045 25.69846145 3.38107045 25.69846145 -1.90625 15.31640625 C-2.4940625 14.86136719 -3.081875 14.40632813 -3.6875 13.9375 C-4.2753125 13.46441406 -4.863125 12.99132812 -5.46875 12.50390625 C-12.73454982 7.73159683 -21.22432029 10.47766872 -27 16.125 Z " fill="#371C13" transform="translate(1133.1875,305.625)"/>
<path d="M0 0 C3.63 0 7.26 0 11 0 C17.05358822 15.2268577 22.68242327 30.60824604 28.29980469 45.99975586 C29.62407453 49.62771741 30.95347383 53.25377729 32.28407097 56.87942219 C33.3177363 59.69837639 34.34808939 62.51853267 35.37750626 65.33904076 C35.86672471 66.67785502 36.35711079 68.01624326 36.84872055 69.35418129 C37.53135658 71.21312321 38.20890407 73.07393134 38.88623047 74.93481445 C39.46411819 76.51550468 39.46411819 76.51550468 40.05368042 78.12812805 C41 81 41 81 42 86 C37.05 86 32.1 86 27 86 C26.175 83.751875 25.35 81.50375 24.5 79.1875 C24.23896484 78.48391357 23.97792969 77.78032715 23.70898438 77.05541992 C22.68412514 74.22363626 22 72.03435748 22 69 C11.11 69 0.22 69 -11 69 C-11.99 72.63 -12.98 76.26 -14 80 C-14.99 81.98 -15.98 83.96 -17 86 C-21.95 86 -26.9 86 -32 86 C-26.39708048 69.67254731 -20.56151547 53.43711306 -14.58911133 37.24145508 C-13.40424307 34.02795816 -12.22456948 30.81257934 -11.04607677 27.59673977 C-9.90238083 24.47868757 -8.75363576 21.36250232 -7.60546875 18.24609375 C-7.18669968 17.10240829 -6.7679306 15.95872284 -6.33647156 14.78038025 C-4.45907198 9.7035656 -2.58293611 4.76165442 0 0 Z M5 22 C1.04 33.55 -2.92 45.1 -7 57 C0.92 57 8.84 57 17 57 C15.77446656 51.4850995 14.67396244 46.65883607 12.8359375 41.43359375 C12.43632813 40.28955078 12.03671875 39.14550781 11.625 37.96679688 C11.2125 36.80212891 10.8 35.63746094 10.375 34.4375 C9.95476563 33.23802734 9.53453125 32.03855469 9.1015625 30.80273438 C8.07225134 27.86685823 7.03830116 24.93270619 6 22 C5.67 22 5.34 22 5 22 Z " fill="#371C13" transform="translate(950,304)"/>
<path d="M0 0 C1.37446953 1.29088693 2.72102277 2.61444134 4 4 C2.4404735 7.82792868 0.16368164 10.36359864 -3 13 C-6.01254504 12.63111693 -8.34416947 11.340865 -11 9.9375 C-17.67376061 6.91500346 -24.65472259 6.88490753 -31.5625 9.1875 C-34.39575021 11.2942758 -35.66089387 12.72662945 -37 16 C-37.26646671 19.79715064 -37.38550617 23.41927026 -36 27 C-29.76724378 30.56995217 -21.37108502 31.16589653 -14.37304688 32.28515625 C-7.18845712 33.58137368 -1.75071987 36.17689277 3.375 41.4375 C7.64678473 48.17377591 7.73329257 55.25865816 7 63 C5.33694612 69.71196597 1.85527682 74.37215429 -4 78 C-14.21596697 83.74312679 -28.42106326 83.8031024 -39.625 80.875 C-45.62174494 78.66567292 -51.42870291 75.35694564 -55 70 C-52.03 67.03 -49.06 64.06 -46 61 C-44.515 61.94875 -43.03 62.8975 -41.5 63.875 C-33.98144932 68.36495139 -26.33822911 70.41423027 -17.6015625 68.46484375 C-13.10896506 67.1345115 -10.42507428 66.22142559 -8 62 C-7.19712677 57.48655052 -7.08745207 53.35192286 -9.6875 49.5 C-14.77833308 46.197838 -19.80389352 45.49907401 -25.6875 44.6875 C-34.02203644 43.41004134 -41.08840009 41.61070761 -47.4375 35.75 C-51.45357017 28.6817165 -53.13243725 21.79481406 -51.56640625 13.78125 C-49.64907678 6.82646483 -45.92658003 1.75481405 -40.0234375 -2.38671875 C-28.48447782 -8.1969723 -10.69583785 -6.86557159 0 0 Z " fill="#371C13" transform="translate(850,309)"/>
<path d="M0 0 C20.13 0 40.26 0 61 0 C61 4.29 61 8.58 61 13 C53.41 13 45.82 13 38 13 C38 37.09 38 61.18 38 86 C33.38 86 28.76 86 24 86 C24 61.91 24 37.82 24 13 C16.08 13 8.16 13 0 13 C0 8.71 0 4.42 0 0 Z " fill="#371C13" transform="translate(986,304)"/>
<path d="M0 0 C19.8 0 39.6 0 60 0 C60 4.29 60 8.58 60 13 C52.41 13 44.82 13 37 13 C37 37.09 37 61.18 37 86 C32.38 86 27.76 86 23 86 C23 61.91 23 37.82 23 13 C15.41 13 7.82 13 0 13 C0 8.71 0 4.42 0 0 Z " fill="#371C13" transform="translate(864,304)"/>
<path d="M0 0 C4.62 0 9.24 0 14 0 C14 28.38 14 56.76 14 86 C9.38 86 4.76 86 0 86 C0 57.62 0 29.24 0 0 Z " fill="#371C13" transform="translate(1058,304)"/>
</svg>
